<?xml version="1.0" encoding="UTF-8"?>
<!--Generator: Apple Native CoreSVG 175.5-->
<!DOCTYPE svg
PUBLIC "-//W3C//DTD SVG 1.1//EN"
       "http://www.w3.org/Graphics/SVG/1.1/DTD/svg11.dtd">
<svg version="1.1" xmlns="http://www.w3.org/2000/svg" xmlns:xlink="http://www.w3.org/1999/xlink" width="3300" height="2200">
 <!--glyph: "uni100176.medium", point size: 100.0, font version: "18.0d12e2", template writer version: "101"-->
 <style>.monochrome-0 {fill:#000000}
.monochrome-1 {fill:#000000}

.hierarchical-0:secondary {fill:#4D4D4D}
.hierarchical-1:primary {fill:#212121}

.SFSymbolsPreview212121 {fill:#212121;opacity:1.0}
.SFSymbolsPreview4D4D4D {fill:#4D4D4D;opacity:1.0}
</style>
 <g id="Notes">
  <rect height="2200" id="artboard" style="fill:white;opacity:1" width="3300" x="0" y="0"/>
  <line style="fill:none;stroke:black;opacity:1;stroke-width:0.5;" x1="263" x2="3036" y1="292" y2="292"/>
  <text style="stroke:none;fill:black;font-family:sans-serif;font-size:13;font-weight:bold;" transform="matrix(1 0 0 1 263 322)">Weight/Scale Variations</text>
  <text style="stroke:none;fill:black;font-family:sans-serif;font-size:13;text-anchor:middle;" transform="matrix(1 0 0 1 559.711 322)">Ultralight</text>
  <text style="stroke:none;fill:black;font-family:sans-serif;font-size:13;text-anchor:middle;" transform="matrix(1 0 0 1 856.422 322)">Thin</text>
  <text style="stroke:none;fill:black;font-family:sans-serif;font-size:13;text-anchor:middle;" transform="matrix(1 0 0 1 1153.13 322)">Light</text>
  <text style="stroke:none;fill:black;font-family:sans-serif;font-size:13;text-anchor:middle;" transform="matrix(1 0 0 1 1449.84 322)">Regular</text>
  <text style="stroke:none;fill:black;font-family:sans-serif;font-size:13;text-anchor:middle;" transform="matrix(1 0 0 1 1746.56 322)">Medium</text>
  <text style="stroke:none;fill:black;font-family:sans-serif;font-size:13;text-anchor:middle;" transform="matrix(1 0 0 1 2043.27 322)">Semibold</text>
  <text style="stroke:none;fill:black;font-family:sans-serif;font-size:13;text-anchor:middle;" transform="matrix(1 0 0 1 2339.98 322)">Bold</text>
  <text style="stroke:none;fill:black;font-family:sans-serif;font-size:13;text-anchor:middle;" transform="matrix(1 0 0 1 2636.69 322)">Heavy</text>
  <text style="stroke:none;fill:black;font-family:sans-serif;font-size:13;text-anchor:middle;" transform="matrix(1 0 0 1 2933.4 322)">Black</text>
  <line style="fill:none;stroke:black;opacity:1;stroke-width:0.5;" x1="263" x2="3036" y1="1903" y2="1903"/>
  <g transform="matrix(1 0 0 1 263 1933)">
   <path d="M9.24805 0.830078C13.5547 0.830078 17.1387-2.74414 17.1387-7.05078C17.1387-11.3574 13.5449-14.9316 9.23828-14.9316C4.94141-14.9316 1.36719-11.3574 1.36719-7.05078C1.36719-2.74414 4.95117 0.830078 9.24805 0.830078ZM9.24805-0.654297C5.70312-0.654297 2.87109-3.49609 2.87109-7.05078C2.87109-10.6055 5.69336-13.4473 9.23828-13.4473C12.793-13.4473 15.6445-10.6055 15.6445-7.05078C15.6445-3.49609 12.8027-0.654297 9.24805-0.654297ZM5.6543-7.05078C5.6543-6.62109 5.95703-6.32812 6.40625-6.32812L8.50586-6.32812L8.50586-4.20898C8.50586-3.76953 8.79883-3.4668 9.22852-3.4668C9.67773-3.4668 9.9707-3.76953 9.9707-4.20898L9.9707-6.32812L12.0898-6.32812C12.5293-6.32812 12.832-6.62109 12.832-7.05078C12.832-7.49023 12.5293-7.79297 12.0898-7.79297L9.9707-7.79297L9.9707-9.90234C9.9707-10.3516 9.67773-10.6543 9.22852-10.6543C8.79883-10.6543 8.50586-10.3516 8.50586-9.90234L8.50586-7.79297L6.40625-7.79297C5.95703-7.79297 5.6543-7.49023 5.6543-7.05078Z"/>
  </g>
  <g transform="matrix(1 0 0 1 281.867 1933)">
   <path d="M11.709 2.91016C17.1582 2.91016 21.6699-1.61133 21.6699-7.05078C21.6699-12.5 17.1484-17.0117 11.6992-17.0117C6.25977-17.0117 1.74805-12.5 1.74805-7.05078C1.74805-1.61133 6.26953 2.91016 11.709 2.91016ZM11.709 1.25C7.09961 1.25 3.41797-2.44141 3.41797-7.05078C3.41797-11.6602 7.08984-15.3516 11.6992-15.3516C16.3086-15.3516 20.0098-11.6602 20.0098-7.05078C20.0098-2.44141 16.3184 1.25 11.709 1.25ZM7.17773-7.05078C7.17773-6.57227 7.50977-6.25 8.00781-6.25L10.8789-6.25L10.8789-3.36914C10.8789-2.88086 11.2109-2.53906 11.6895-2.53906C12.1777-2.53906 12.5195-2.87109 12.5195-3.36914L12.5195-6.25L15.4004-6.25C15.8887-6.25 16.2305-6.57227 16.2305-7.05078C16.2305-7.53906 15.8887-7.88086 15.4004-7.88086L12.5195-7.88086L12.5195-10.752C12.5195-11.25 12.1777-11.5918 11.6895-11.5918C11.2109-11.5918 10.8789-11.25 10.8789-10.752L10.8789-7.88086L8.00781-7.88086C7.50977-7.88086 7.17773-7.53906 7.17773-7.05078Z"/>
  </g>
  <g transform="matrix(1 0 0 1 305.646 1933)">
   <path d="M14.9707 5.66406C21.9336 5.66406 27.6953-0.0976562 27.6953-7.05078C27.6953-14.0137 21.9238-19.7754 14.9609-19.7754C8.00781-19.7754 2.25586-14.0137 2.25586-7.05078C2.25586-0.0976562 8.01758 5.66406 14.9707 5.66406ZM14.9707 3.84766C8.93555 3.84766 4.08203-1.01562 4.08203-7.05078C4.08203-13.0957 8.92578-17.9492 14.9609-17.9492C21.0059-17.9492 25.8691-13.0957 25.8691-7.05078C25.8691-1.01562 21.0156 3.84766 14.9707 3.84766ZM9.19922-7.05078C9.19922-6.5332 9.57031-6.17188 10.1172-6.17188L14.0625-6.17188L14.0625-2.2168C14.0625-1.67969 14.4336-1.29883 14.9512-1.29883C15.4883-1.29883 15.8594-1.66992 15.8594-2.2168L15.8594-6.17188L19.8145-6.17188C20.3516-6.17188 20.7324-6.5332 20.7324-7.05078C20.7324-7.59766 20.3613-7.96875 19.8145-7.96875L15.8594-7.96875L15.8594-11.9141C15.8594-12.4609 15.4883-12.8418 14.9512-12.8418C14.4336-12.8418 14.0625-12.4609 14.0625-11.9141L14.0625-7.96875L10.1172-7.96875C9.57031-7.96875 9.19922-7.59766 9.19922-7.05078Z"/>
  </g>
  <text style="stroke:none;fill:black;font-family:sans-serif;font-size:13;font-weight:bold;" transform="matrix(1 0 0 1 263 1953)">Design Variations</text>
  <text style="stroke:none;fill:black;font-family:sans-serif;font-size:13;" transform="matrix(1 0 0 1 263 1971)">Symbols are supported in up to nine weights and three scales.</text>
  <text style="stroke:none;fill:black;font-family:sans-serif;font-size:13;" transform="matrix(1 0 0 1 263 1989)">For optimal layout with text and other symbols, vertically align</text>
  <text style="stroke:none;fill:black;font-family:sans-serif;font-size:13;" transform="matrix(1 0 0 1 263 2007)">symbols with the adjacent text.</text>
  <line style="fill:none;stroke:#00AEEF;stroke-width:0.5;opacity:1.0;" x1="776" x2="776" y1="1919" y2="1933"/>
  <g transform="matrix(1 0 0 1 776 1933)">
   <path d="M3.31055 0.15625C3.82812 0.15625 4.08203-0.0390625 4.26758-0.585938L5.52734-4.0332L11.2891-4.0332L12.5488-0.585938C12.7344-0.0390625 12.9883 0.15625 13.4961 0.15625C14.0137 0.15625 14.3457-0.15625 14.3457-0.644531C14.3457-0.810547 14.3164-0.966797 14.2383-1.17188L9.6582-13.3691C9.43359-13.9648 9.0332-14.2676 8.4082-14.2676C7.80273-14.2676 7.39258-13.9746 7.17773-13.3789L2.59766-1.16211C2.51953-0.957031 2.49023-0.800781 2.49023-0.634766C2.49023-0.146484 2.80273 0.15625 3.31055 0.15625ZM6.00586-5.51758L8.37891-12.0898L8.42773-12.0898L10.8008-5.51758Z"/>
  </g>
  <line style="fill:none;stroke:#00AEEF;stroke-width:0.5;opacity:1.0;" x1="793.197" x2="793.197" y1="1919" y2="1933"/>
  <text style="stroke:none;fill:black;font-family:sans-serif;font-size:13;font-weight:bold;" transform="matrix(1 0 0 1 776 1953)">Margins</text>
  <text style="stroke:none;fill:black;font-family:sans-serif;font-size:13;" transform="matrix(1 0 0 1 776 1971)">Leading and trailing margins on the left and right side of each symbol</text>
  <text style="stroke:none;fill:black;font-family:sans-serif;font-size:13;" transform="matrix(1 0 0 1 776 1989)">can be adjusted by modifying the x-location of the margin guidelines.</text>
  <text style="stroke:none;fill:black;font-family:sans-serif;font-size:13;" transform="matrix(1 0 0 1 776 2007)">Modifications are automatically applied proportionally to all</text>
  <text style="stroke:none;fill:black;font-family:sans-serif;font-size:13;" transform="matrix(1 0 0 1 776 2025)">scales and weights.</text>
  <g transform="matrix(1 0 0 1 1289 1933)">
   <path d="M2.8418 1.86523L4.54102 3.57422C5.40039 4.44336 6.38672 4.38477 7.31445 3.35938L18.0078-8.42773L17.041-9.4043L6.42578 2.27539C6.07422 2.67578 5.74219 2.77344 5.27344 2.30469L4.10156 1.14258C3.63281 0.683594 3.74023 0.341797 4.14062-0.0195312L15.6152-10.8203L14.6387-11.7871L3.04688-0.898438C2.06055 0.0195312 1.98242 0.996094 2.8418 1.86523ZM9.25781-16.3281C8.83789-15.918 8.80859-15.3418 9.04297-14.9512C9.27734-14.5898 9.73633-14.3555 10.3809-14.5215C11.8457-14.8633 13.3691-14.9219 14.7949-13.9844L14.209-12.5293C13.8672-11.6992 14.043-11.1133 14.5801-10.5664L16.875-8.25195C17.3633-7.76367 17.7734-7.74414 18.3398-7.8418L19.4043-8.03711L20.0684-7.36328L20.0293-6.80664C19.9902-6.30859 20.1172-5.92773 20.6055-5.44922L21.3672-4.70703C21.8457-4.22852 22.4609-4.19922 22.9297-4.66797L25.8398-7.58789C26.3086-8.05664 26.2891-8.65234 25.8105-9.13086L25.0391-9.89258C24.5605-10.3711 24.1895-10.5273 23.7109-10.4883L23.1348-10.4395L22.4902-11.0742L22.7344-12.1973C22.8613-12.7637 22.7051-13.2031 22.1191-13.7891L19.9219-15.9766C16.582-19.2969 12.1484-19.2188 9.25781-16.3281ZM10.752-15.957C13.1836-17.7344 16.4746-17.4316 18.7012-15.2051L21.1328-12.793C21.3672-12.5586 21.4062-12.373 21.3379-12.0312L21.0156-10.5469L22.5195-9.0625L23.5059-9.12109C23.7598-9.13086 23.8379-9.11133 24.0332-8.91602L24.6094-8.33984L22.168-5.89844L21.5918-6.47461C21.3965-6.66992 21.3672-6.74805 21.377-7.01172L21.4453-7.98828L19.9512-9.47266L18.4277-9.21875C18.1055-9.15039 17.959-9.17969 17.7148-9.41406L15.7129-11.416C15.459-11.6504 15.4297-11.8164 15.5859-12.1875L16.4648-14.2773C14.9023-15.7324 12.8711-16.3574 10.8398-15.7617C10.6836-15.7227 10.625-15.8496 10.752-15.957Z"/>
  </g>
  <text style="stroke:none;fill:black;font-family:sans-serif;font-size:13;font-weight:bold;" transform="matrix(1 0 0 1 1289 1953)">Exporting</text>
  <text style="stroke:none;fill:black;font-family:sans-serif;font-size:13;" transform="matrix(1 0 0 1 1289 1971)">Symbols should be outlined when exporting to ensure the</text>
  <text style="stroke:none;fill:black;font-family:sans-serif;font-size:13;" transform="matrix(1 0 0 1 1289 1989)">design is preserved when submitting to Xcode.</text>
  <text id="template-version" style="stroke:none;fill:black;font-family:sans-serif;font-size:13;text-anchor:end;" transform="matrix(1 0 0 1 3036 1933)">Template v.4.0</text>
  <text style="stroke:none;fill:black;font-family:sans-serif;font-size:13;text-anchor:end;" transform="matrix(1 0 0 1 3036 1951)">Requires Xcode 14 or greater</text>
  <text id="descriptive-name" style="stroke:none;fill:black;font-family:sans-serif;font-size:13;text-anchor:end;" transform="matrix(1 0 0 1 3036 1969)">Generated from character.textbox</text>
  <text style="stroke:none;fill:black;font-family:sans-serif;font-size:13;text-anchor:end;" transform="matrix(1 0 0 1 3036 1987)">Typeset at 100 points</text>
  <text style="stroke:none;fill:black;font-family:sans-serif;font-size:13;" transform="matrix(1 0 0 1 263 726)">Small</text>
  <text style="stroke:none;fill:black;font-family:sans-serif;font-size:13;" transform="matrix(1 0 0 1 263 1156)">Medium</text>
  <text style="stroke:none;fill:black;font-family:sans-serif;font-size:13;" transform="matrix(1 0 0 1 263 1586)">Large</text>
 </g>
 <g id="Guides">
  <g id="H-reference" style="fill:#27AAE1;stroke:none;" transform="matrix(1 0 0 1 339 696)">
   <path d="M0.993654 0L3.63775 0L29.3281-67.1323L30.0303-67.1323L30.0303-70.459L28.1226-70.459ZM11.6885-24.4799L46.9815-24.4799L46.2315-26.7285L12.4385-26.7285ZM55.1196 0L57.7637 0L30.6382-70.459L29.4326-70.459L29.4326-67.1323Z"/>
  </g>
  <line id="Baseline-S" style="fill:none;stroke:#27AAE1;opacity:1;stroke-width:0.5;" x1="263" x2="3036" y1="696" y2="696"/>
  <line id="Capline-S" style="fill:none;stroke:#27AAE1;opacity:1;stroke-width:0.5;" x1="263" x2="3036" y1="625.541" y2="625.541"/>
  <g id="H-reference" style="fill:#27AAE1;stroke:none;" transform="matrix(1 0 0 1 339 1126)">
   <path d="M0.993654 0L3.63775 0L29.3281-67.1323L30.0303-67.1323L30.0303-70.459L28.1226-70.459ZM11.6885-24.4799L46.9815-24.4799L46.2315-26.7285L12.4385-26.7285ZM55.1196 0L57.7637 0L30.6382-70.459L29.4326-70.459L29.4326-67.1323Z"/>
  </g>
  <line id="Baseline-M" style="fill:none;stroke:#27AAE1;opacity:1;stroke-width:0.5;" x1="263" x2="3036" y1="1126" y2="1126"/>
  <line id="Capline-M" style="fill:none;stroke:#27AAE1;opacity:1;stroke-width:0.5;" x1="263" x2="3036" y1="1055.54" y2="1055.54"/>
  <g id="H-reference" style="fill:#27AAE1;stroke:none;" transform="matrix(1 0 0 1 339 1556)">
   <path d="M0.993654 0L3.63775 0L29.3281-67.1323L30.0303-67.1323L30.0303-70.459L28.1226-70.459ZM11.6885-24.4799L46.9815-24.4799L46.2315-26.7285L12.4385-26.7285ZM55.1196 0L57.7637 0L30.6382-70.459L29.4326-70.459L29.4326-67.1323Z"/>
  </g>
  <line id="Baseline-L" style="fill:none;stroke:#27AAE1;opacity:1;stroke-width:0.5;" x1="263" x2="3036" y1="1556" y2="1556"/>
  <line id="Capline-L" style="fill:none;stroke:#27AAE1;opacity:1;stroke-width:0.5;" x1="263" x2="3036" y1="1485.54" y2="1485.54"/>
  <line id="left-margin-Ultralight-S" style="fill:none;stroke:#00AEEF;stroke-width:0.5;opacity:1.0;" x1="502.859" x2="502.859" y1="600.785" y2="720.121"/>
  <line id="right-margin-Ultralight-S" style="fill:none;stroke:#00AEEF;stroke-width:0.5;opacity:1.0;" x1="616.563" x2="616.563" y1="600.785" y2="720.121"/>
  <line id="left-margin-Regular-S" style="fill:none;stroke:#00AEEF;stroke-width:0.5;opacity:1.0;" x1="1393.11" x2="1393.11" y1="600.785" y2="720.121"/>
  <line id="right-margin-Regular-S" style="fill:none;stroke:#00AEEF;stroke-width:0.5;opacity:1.0;" x1="1506.58" x2="1506.58" y1="600.785" y2="720.121"/>
  <line id="left-margin-Black-S" style="fill:none;stroke:#00AEEF;stroke-width:0.5;opacity:1.0;" x1="2876.42" x2="2876.42" y1="600.785" y2="720.121"/>
  <line id="right-margin-Black-S" style="fill:none;stroke:#00AEEF;stroke-width:0.5;opacity:1.0;" x1="2990.38" x2="2990.38" y1="600.785" y2="720.121"/>
 </g>
 <g id="Symbols">
  <g id="Black-S" transform="matrix(1 0 0 1 2876.42 696)">
   <path class="monochrome-0 hierarchical-0:secondary SFSymbolsPreview4D4D4D" d="M25.9277 2.92969L88.0371 2.92969C97.6074 2.92969 103.271-2.73438 103.271-12.3047L103.271-15.1855C103.271-19.3359 100.293-22.3633 96.1914-22.3633C92.0898-22.3633 89.1113-19.3359 89.1113-15.1855L89.1113-14.5508C89.1113-12.1094 88.0371-11.2305 85.791-11.2305L28.1738-11.2305C25.9277-11.2305 24.8535-12.1094 24.8535-14.5508L24.8535-15.1855C24.8535-19.3359 21.875-22.3633 17.7734-22.3633C13.6719-22.3633 10.6934-19.3359 10.6934-15.1855L10.6934-12.3047C10.6934-2.73438 16.3574 2.92969 25.9277 2.92969ZM25.9277-73.3398C16.3574-73.3398 10.6934-67.6758 10.6934-58.1055L10.6934-55.2246C10.6934-51.0742 13.6719-48.0469 17.7734-48.0469C21.875-48.0469 24.8535-51.0742 24.8535-55.2246L24.8535-55.8594C24.8535-58.3008 25.9277-59.1797 28.1738-59.1797L85.791-59.1797C88.0371-59.1797 89.1113-58.3008 89.1113-55.8594L89.1113-55.2246C89.1113-51.0742 92.0898-48.0469 96.1914-48.0469C100.293-48.0469 103.271-51.0742 103.271-55.2246L103.271-58.1055C103.271-67.6758 97.6074-73.3398 88.0371-73.3398ZM17.7734-27.2461C22.168-27.2461 25.7812-30.8594 25.7812-35.2539C25.7812-39.6484 22.168-43.2617 17.7734-43.2617C13.3789-43.2617 9.76562-39.6484 9.76562-35.2539C9.76562-30.8594 13.3789-27.2461 17.7734-27.2461ZM96.1914-27.2461C100.586-27.2461 104.199-30.8594 104.199-35.2539C104.199-39.6484 100.586-43.2617 96.1914-43.2617C91.7969-43.2617 88.1836-39.6484 88.1836-35.2539C88.1836-30.8594 91.7969-27.2461 96.1914-27.2461Z"/>
   <path class="monochrome-1 hierarchical-1:primary SFSymbolsPreview212121" d="M46.7285-17.7734C50.0488-17.7734 52.0508-19.6777 52.7832-23.4863L52.9785-24.5117L60.9863-24.5117L61.1816-23.4863C61.9141-19.6777 63.916-17.7734 67.2363-17.7734C71.0938-17.7734 73.291-19.9219 73.291-23.6328C73.291-24.5605 73.0469-25.9277 72.4609-27.7832L67.2852-44.2383C65.5273-49.9023 62.1582-52.5391 56.8359-52.5391C51.6602-52.5391 48.4863-49.9512 46.6797-44.2383L41.5039-27.7832C40.918-25.9277 40.6738-24.5605 40.6738-23.6328C40.6738-19.9219 42.8711-17.7734 46.7285-17.7734ZM54.8828-33.252L56.7871-42.2852L57.1777-42.2852L59.082-33.252Z"/>
  </g>
  <g id="Regular-S" transform="matrix(1 0 0 1 1393.11 696)">
   <path class="monochrome-0 hierarchical-0:secondary SFSymbolsPreview4D4D4D" d="M23.877 0.390625L89.5996 0.390625C97.9492 0.390625 102.051-3.71094 102.051-11.9141L102.051-22.6562C102.051-24.9512 100.781-26.2207 98.5352-26.2207C96.2402-26.2207 95.0195-24.9512 95.0195-22.6562L95.0195-12.2559C95.0195-8.54492 93.0176-6.68945 89.502-6.68945L23.9746-6.68945C20.459-6.68945 18.5059-8.54492 18.5059-12.2559L18.5059-22.6562C18.5059-24.9512 17.2363-26.2207 14.9902-26.2207C12.6953-26.2207 11.4258-24.9512 11.4258-22.6562L11.4258-11.9141C11.4258-3.71094 15.625 0.390625 23.877 0.390625ZM23.877-70.8008C15.625-70.8008 11.4258-66.6992 11.4258-58.4961L11.4258-50C11.4258-47.7051 12.6953-46.4355 14.9902-46.4355C17.2363-46.4355 18.5059-47.7051 18.5059-50L18.5059-58.1543C18.5059-61.8164 20.459-63.7207 23.9746-63.7207L89.502-63.7207C93.0176-63.7207 95.0195-61.8164 95.0195-58.1543L95.0195-50C95.0195-47.7051 96.2891-46.4355 98.5352-46.4355C100.83-46.4355 102.051-47.7051 102.051-50L102.051-58.4961C102.051-66.6992 97.9492-70.8008 89.5996-70.8008ZM14.9902-31.1035C17.8711-31.1035 20.166-33.4961 20.166-36.377C20.166-39.209 17.8711-41.5527 14.9902-41.5527C12.1094-41.5527 9.76562-39.209 9.76562-36.377C9.76562-33.4961 12.1094-31.1035 14.9902-31.1035ZM98.5352-31.1035C101.367-31.1035 103.711-33.4961 103.711-36.377C103.711-39.209 101.367-41.5527 98.5352-41.5527C95.6543-41.5527 93.3105-39.2578 93.3105-36.377C93.3105-33.4961 95.6543-31.1035 98.5352-31.1035Z"/>
   <path class="monochrome-1 hierarchical-1:primary SFSymbolsPreview212121" d="M44.1406-17.1875C45.7031-17.1875 46.8262-17.9199 47.4609-19.9219L50.0488-27.5879L63.4277-27.5879L65.9668-19.9219C66.6504-17.9199 67.7734-17.1875 69.3359-17.1875C71.2402-17.1875 72.5098-18.4082 72.5098-20.166C72.5098-20.8496 72.3633-21.4844 72.0703-22.4121L61.6211-50.7324C60.791-52.9785 59.082-54.1504 56.6895-54.1504C54.3457-54.1504 52.6855-52.9785 51.8555-50.7324L41.4062-22.4121C41.0645-21.4844 40.918-20.8496 40.918-20.166C40.918-18.4082 42.1875-17.1875 44.1406-17.1875ZM51.7578-32.7637L56.4941-46.9238L56.9824-46.9238L61.7188-32.7637Z"/>
  </g>
  <g id="Ultralight-S" transform="matrix(1 0 0 1 502.859 696)">
   <path class="monochrome-0 hierarchical-0:secondary SFSymbolsPreview4D4D4D" d="M22.6055-1.562L91.1435-1.562C97.6768-1.562 101.143-5.11864 101.143-11.5508L101.143-25.1084C101.143-25.7231 100.69-26.2207 100.034-26.2207C99.4189-26.2207 98.9248-25.7231 98.9248-25.1084L98.9248-11.6655C98.9248-6.45607 96.0146-3.78323 91.0459-3.78323L22.7031-3.78323C17.5528-3.78323 14.8277-6.45607 14.8277-11.6655L14.8277-25.1084C14.8277-25.7231 14.3755-26.2207 13.7188-26.2207C13.104-26.2207 12.6518-25.7231 12.6518-25.1084L12.6518-11.5508C12.6518-5.02782 16.0791-1.562 22.6055-1.562ZM22.6055-68.7573C16.0791-68.7573 12.6518-65.2915 12.6518-58.7686L12.6518-45.3228C12.6518-44.708 13.104-44.2105 13.7188-44.2105C14.3755-44.2105 14.8277-44.708 14.8277-45.3228L14.8277-58.6538C14.8277-63.8598 17.5528-66.5361 22.7031-66.5361L91.0459-66.5361C96.0146-66.5361 98.9248-63.8598 98.9248-58.6538L98.9248-45.3228C98.9248-44.708 99.3769-44.2105 100.034-44.2105C100.694-44.2105 101.143-44.708 101.143-45.3228L101.143-58.7686C101.143-65.2007 97.6768-68.7573 91.1435-68.7573ZM13.7188-31.4668C15.8731-31.4668 17.6685-33.2236 17.6685-35.4233C17.6685-37.5742 15.8731-39.3277 13.7188-39.3277C11.5645-39.3277 9.76562-37.5742 9.76562-35.4233C9.76562-33.2236 11.5645-31.4668 13.7188-31.4668ZM100.034-31.4668C102.139-31.4668 103.938-33.2236 103.938-35.4233C103.938-37.5742 102.139-39.3277 100.034-39.3277C97.834-39.3277 96.0351-37.5776 96.0351-35.4233C96.0351-33.2236 97.834-31.4668 100.034-31.4668Z"/>
   <path class="monochrome-1 hierarchical-1:primary SFSymbolsPreview212121" d="M44.3677-17.5962C44.9766-17.5962 45.2822-17.8291 45.5083-18.5596L49.3677-28.814L64.3813-28.814L68.1919-18.5596C68.4668-17.8745 68.7725-17.5962 69.4268-17.5962C70.0596-17.5962 70.5117-18.0449 70.5117-18.5767C70.5117-18.8516 70.4561-18.9868 70.3447-19.3242L58.397-50.8232C58.1118-51.5708 57.6289-51.9253 56.8711-51.9253C56.1167-51.9253 55.6372-51.5708 55.352-50.8232L43.3589-19.3242C43.2441-18.9868 43.1885-18.8516 43.1885-18.6221C43.1885-17.9995 43.6406-17.5962 44.3677-17.5962ZM50.1685-30.9019L56.7666-48.5586L56.937-48.5586L63.5806-30.9019Z"/>
  </g>
 </g>
</svg>
