<?xml version="1.0" encoding="UTF-8"?>
<!--Generator: Apple Native CoreSVG 175.5-->
<!DOCTYPE svg
PUBLIC "-//W3C//DTD SVG 1.1//EN"
       "http://www.w3.org/Graphics/SVG/1.1/DTD/svg11.dtd">
<svg version="1.1" xmlns="http://www.w3.org/2000/svg" xmlns:xlink="http://www.w3.org/1999/xlink" width="3300" height="2200">
 <!--glyph: "uni1014CE.medium", point size: 100.0, font version: "18.0d12e2", template writer version: "101"-->
 <style>.monochrome-0 {fill:#000000}
.monochrome-1 {fill:#000000;-sfsymbols-variable-threshold:0.0}
.monochrome-2 {fill:#000000;-sfsymbols-variable-threshold:0.34}
.monochrome-3 {fill:#000000;-sfsymbols-variable-threshold:0.68}

.multicolor-0:tintColor {fill:#007AFF}
.multicolor-1:tintColor {fill:#007AFF;-sfsymbols-variable-threshold:0.0}
.multicolor-2:tintColor {fill:#007AFF;-sfsymbols-variable-threshold:0.34}
.multicolor-3:tintColor {fill:#007AFF;-sfsymbols-variable-threshold:0.68}

.hierarchical-0:primary {fill:#212121}
.hierarchical-1:secondary {fill:#4D4D4D;-sfsymbols-variable-threshold:0.0}
.hierarchical-2:secondary {fill:#4D4D4D;-sfsymbols-variable-threshold:0.34}
.hierarchical-3:secondary {fill:#4D4D4D;-sfsymbols-variable-threshold:0.68}

.SFSymbolsPreview007AFF {fill:#007AFF;opacity:1.0}
</style>
 <g id="Notes">
  <rect height="2200" id="artboard" style="fill:white;opacity:1" width="3300" x="0" y="0"/>
  <line style="fill:none;stroke:black;opacity:1;stroke-width:0.5;" x1="263" x2="3036" y1="292" y2="292"/>
  <text style="stroke:none;fill:black;font-family:sans-serif;font-size:13;font-weight:bold;" transform="matrix(1 0 0 1 263 322)">Weight/Scale Variations</text>
  <text style="stroke:none;fill:black;font-family:sans-serif;font-size:13;text-anchor:middle;" transform="matrix(1 0 0 1 559.711 322)">Ultralight</text>
  <text style="stroke:none;fill:black;font-family:sans-serif;font-size:13;text-anchor:middle;" transform="matrix(1 0 0 1 856.422 322)">Thin</text>
  <text style="stroke:none;fill:black;font-family:sans-serif;font-size:13;text-anchor:middle;" transform="matrix(1 0 0 1 1153.13 322)">Light</text>
  <text style="stroke:none;fill:black;font-family:sans-serif;font-size:13;text-anchor:middle;" transform="matrix(1 0 0 1 1449.84 322)">Regular</text>
  <text style="stroke:none;fill:black;font-family:sans-serif;font-size:13;text-anchor:middle;" transform="matrix(1 0 0 1 1746.56 322)">Medium</text>
  <text style="stroke:none;fill:black;font-family:sans-serif;font-size:13;text-anchor:middle;" transform="matrix(1 0 0 1 2043.27 322)">Semibold</text>
  <text style="stroke:none;fill:black;font-family:sans-serif;font-size:13;text-anchor:middle;" transform="matrix(1 0 0 1 2339.98 322)">Bold</text>
  <text style="stroke:none;fill:black;font-family:sans-serif;font-size:13;text-anchor:middle;" transform="matrix(1 0 0 1 2636.69 322)">Heavy</text>
  <text style="stroke:none;fill:black;font-family:sans-serif;font-size:13;text-anchor:middle;" transform="matrix(1 0 0 1 2933.4 322)">Black</text>
  <line style="fill:none;stroke:black;opacity:1;stroke-width:0.5;" x1="263" x2="3036" y1="1903" y2="1903"/>
  <g transform="matrix(1 0 0 1 263 1933)">
   <path d="M9.24805 0.830078C13.5547 0.830078 17.1387-2.74414 17.1387-7.05078C17.1387-11.3574 13.5449-14.9316 9.23828-14.9316C4.94141-14.9316 1.36719-11.3574 1.36719-7.05078C1.36719-2.74414 4.95117 0.830078 9.24805 0.830078ZM9.24805-0.654297C5.70312-0.654297 2.87109-3.49609 2.87109-7.05078C2.87109-10.6055 5.69336-13.4473 9.23828-13.4473C12.793-13.4473 15.6445-10.6055 15.6445-7.05078C15.6445-3.49609 12.8027-0.654297 9.24805-0.654297ZM5.6543-7.05078C5.6543-6.62109 5.95703-6.32812 6.40625-6.32812L8.50586-6.32812L8.50586-4.20898C8.50586-3.76953 8.79883-3.4668 9.22852-3.4668C9.67773-3.4668 9.9707-3.76953 9.9707-4.20898L9.9707-6.32812L12.0898-6.32812C12.5293-6.32812 12.832-6.62109 12.832-7.05078C12.832-7.49023 12.5293-7.79297 12.0898-7.79297L9.9707-7.79297L9.9707-9.90234C9.9707-10.3516 9.67773-10.6543 9.22852-10.6543C8.79883-10.6543 8.50586-10.3516 8.50586-9.90234L8.50586-7.79297L6.40625-7.79297C5.95703-7.79297 5.6543-7.49023 5.6543-7.05078Z"/>
  </g>
  <g transform="matrix(1 0 0 1 281.867 1933)">
   <path d="M11.709 2.91016C17.1582 2.91016 21.6699-1.61133 21.6699-7.05078C21.6699-12.5 17.1484-17.0117 11.6992-17.0117C6.25977-17.0117 1.74805-12.5 1.74805-7.05078C1.74805-1.61133 6.26953 2.91016 11.709 2.91016ZM11.709 1.25C7.09961 1.25 3.41797-2.44141 3.41797-7.05078C3.41797-11.6602 7.08984-15.3516 11.6992-15.3516C16.3086-15.3516 20.0098-11.6602 20.0098-7.05078C20.0098-2.44141 16.3184 1.25 11.709 1.25ZM7.17773-7.05078C7.17773-6.57227 7.50977-6.25 8.00781-6.25L10.8789-6.25L10.8789-3.36914C10.8789-2.88086 11.2109-2.53906 11.6895-2.53906C12.1777-2.53906 12.5195-2.87109 12.5195-3.36914L12.5195-6.25L15.4004-6.25C15.8887-6.25 16.2305-6.57227 16.2305-7.05078C16.2305-7.53906 15.8887-7.88086 15.4004-7.88086L12.5195-7.88086L12.5195-10.752C12.5195-11.25 12.1777-11.5918 11.6895-11.5918C11.2109-11.5918 10.8789-11.25 10.8789-10.752L10.8789-7.88086L8.00781-7.88086C7.50977-7.88086 7.17773-7.53906 7.17773-7.05078Z"/>
  </g>
  <g transform="matrix(1 0 0 1 305.646 1933)">
   <path d="M14.9707 5.66406C21.9336 5.66406 27.6953-0.0976562 27.6953-7.05078C27.6953-14.0137 21.9238-19.7754 14.9609-19.7754C8.00781-19.7754 2.25586-14.0137 2.25586-7.05078C2.25586-0.0976562 8.01758 5.66406 14.9707 5.66406ZM14.9707 3.84766C8.93555 3.84766 4.08203-1.01562 4.08203-7.05078C4.08203-13.0957 8.92578-17.9492 14.9609-17.9492C21.0059-17.9492 25.8691-13.0957 25.8691-7.05078C25.8691-1.01562 21.0156 3.84766 14.9707 3.84766ZM9.19922-7.05078C9.19922-6.5332 9.57031-6.17188 10.1172-6.17188L14.0625-6.17188L14.0625-2.2168C14.0625-1.67969 14.4336-1.29883 14.9512-1.29883C15.4883-1.29883 15.8594-1.66992 15.8594-2.2168L15.8594-6.17188L19.8145-6.17188C20.3516-6.17188 20.7324-6.5332 20.7324-7.05078C20.7324-7.59766 20.3613-7.96875 19.8145-7.96875L15.8594-7.96875L15.8594-11.9141C15.8594-12.4609 15.4883-12.8418 14.9512-12.8418C14.4336-12.8418 14.0625-12.4609 14.0625-11.9141L14.0625-7.96875L10.1172-7.96875C9.57031-7.96875 9.19922-7.59766 9.19922-7.05078Z"/>
  </g>
  <text style="stroke:none;fill:black;font-family:sans-serif;font-size:13;font-weight:bold;" transform="matrix(1 0 0 1 263 1953)">Design Variations</text>
  <text style="stroke:none;fill:black;font-family:sans-serif;font-size:13;" transform="matrix(1 0 0 1 263 1971)">Symbols are supported in up to nine weights and three scales.</text>
  <text style="stroke:none;fill:black;font-family:sans-serif;font-size:13;" transform="matrix(1 0 0 1 263 1989)">For optimal layout with text and other symbols, vertically align</text>
  <text style="stroke:none;fill:black;font-family:sans-serif;font-size:13;" transform="matrix(1 0 0 1 263 2007)">symbols with the adjacent text.</text>
  <line style="fill:none;stroke:#00AEEF;stroke-width:0.5;opacity:1.0;" x1="776" x2="776" y1="1919" y2="1933"/>
  <g transform="matrix(1 0 0 1 776 1933)">
   <path d="M3.31055 0.15625C3.82812 0.15625 4.08203-0.0390625 4.26758-0.585938L5.52734-4.0332L11.2891-4.0332L12.5488-0.585938C12.7344-0.0390625 12.9883 0.15625 13.4961 0.15625C14.0137 0.15625 14.3457-0.15625 14.3457-0.644531C14.3457-0.810547 14.3164-0.966797 14.2383-1.17188L9.6582-13.3691C9.43359-13.9648 9.0332-14.2676 8.4082-14.2676C7.80273-14.2676 7.39258-13.9746 7.17773-13.3789L2.59766-1.16211C2.51953-0.957031 2.49023-0.800781 2.49023-0.634766C2.49023-0.146484 2.80273 0.15625 3.31055 0.15625ZM6.00586-5.51758L8.37891-12.0898L8.42773-12.0898L10.8008-5.51758Z"/>
  </g>
  <line style="fill:none;stroke:#00AEEF;stroke-width:0.5;opacity:1.0;" x1="793.197" x2="793.197" y1="1919" y2="1933"/>
  <text style="stroke:none;fill:black;font-family:sans-serif;font-size:13;font-weight:bold;" transform="matrix(1 0 0 1 776 1953)">Margins</text>
  <text style="stroke:none;fill:black;font-family:sans-serif;font-size:13;" transform="matrix(1 0 0 1 776 1971)">Leading and trailing margins on the left and right side of each symbol</text>
  <text style="stroke:none;fill:black;font-family:sans-serif;font-size:13;" transform="matrix(1 0 0 1 776 1989)">can be adjusted by modifying the x-location of the margin guidelines.</text>
  <text style="stroke:none;fill:black;font-family:sans-serif;font-size:13;" transform="matrix(1 0 0 1 776 2007)">Modifications are automatically applied proportionally to all</text>
  <text style="stroke:none;fill:black;font-family:sans-serif;font-size:13;" transform="matrix(1 0 0 1 776 2025)">scales and weights.</text>
  <g transform="matrix(1 0 0 1 1289 1933)">
   <path d="M2.8418 1.86523L4.54102 3.57422C5.40039 4.44336 6.38672 4.38477 7.31445 3.35938L18.0078-8.42773L17.041-9.4043L6.42578 2.27539C6.07422 2.67578 5.74219 2.77344 5.27344 2.30469L4.10156 1.14258C3.63281 0.683594 3.74023 0.341797 4.14062-0.0195312L15.6152-10.8203L14.6387-11.7871L3.04688-0.898438C2.06055 0.0195312 1.98242 0.996094 2.8418 1.86523ZM9.25781-16.3281C8.83789-15.918 8.80859-15.3418 9.04297-14.9512C9.27734-14.5898 9.73633-14.3555 10.3809-14.5215C11.8457-14.8633 13.3691-14.9219 14.7949-13.9844L14.209-12.5293C13.8672-11.6992 14.043-11.1133 14.5801-10.5664L16.875-8.25195C17.3633-7.76367 17.7734-7.74414 18.3398-7.8418L19.4043-8.03711L20.0684-7.36328L20.0293-6.80664C19.9902-6.30859 20.1172-5.92773 20.6055-5.44922L21.3672-4.70703C21.8457-4.22852 22.4609-4.19922 22.9297-4.66797L25.8398-7.58789C26.3086-8.05664 26.2891-8.65234 25.8105-9.13086L25.0391-9.89258C24.5605-10.3711 24.1895-10.5273 23.7109-10.4883L23.1348-10.4395L22.4902-11.0742L22.7344-12.1973C22.8613-12.7637 22.7051-13.2031 22.1191-13.7891L19.9219-15.9766C16.582-19.2969 12.1484-19.2188 9.25781-16.3281ZM10.752-15.957C13.1836-17.7344 16.4746-17.4316 18.7012-15.2051L21.1328-12.793C21.3672-12.5586 21.4062-12.373 21.3379-12.0312L21.0156-10.5469L22.5195-9.0625L23.5059-9.12109C23.7598-9.13086 23.8379-9.11133 24.0332-8.91602L24.6094-8.33984L22.168-5.89844L21.5918-6.47461C21.3965-6.66992 21.3672-6.74805 21.377-7.01172L21.4453-7.98828L19.9512-9.47266L18.4277-9.21875C18.1055-9.15039 17.959-9.17969 17.7148-9.41406L15.7129-11.416C15.459-11.6504 15.4297-11.8164 15.5859-12.1875L16.4648-14.2773C14.9023-15.7324 12.8711-16.3574 10.8398-15.7617C10.6836-15.7227 10.625-15.8496 10.752-15.957Z"/>
  </g>
  <text style="stroke:none;fill:black;font-family:sans-serif;font-size:13;font-weight:bold;" transform="matrix(1 0 0 1 1289 1953)">Exporting</text>
  <text style="stroke:none;fill:black;font-family:sans-serif;font-size:13;" transform="matrix(1 0 0 1 1289 1971)">Symbols should be outlined when exporting to ensure the</text>
  <text style="stroke:none;fill:black;font-family:sans-serif;font-size:13;" transform="matrix(1 0 0 1 1289 1989)">design is preserved when submitting to Xcode.</text>
  <text id="template-version" style="stroke:none;fill:black;font-family:sans-serif;font-size:13;text-anchor:end;" transform="matrix(1 0 0 1 3036 1933)">Template v.4.0</text>
  <text style="stroke:none;fill:black;font-family:sans-serif;font-size:13;text-anchor:end;" transform="matrix(1 0 0 1 3036 1951)">Requires Xcode 14 or greater</text>
  <text id="descriptive-name" style="stroke:none;fill:black;font-family:sans-serif;font-size:13;text-anchor:end;" transform="matrix(1 0 0 1 3036 1969)">Generated from shower.handheld.fill</text>
  <text style="stroke:none;fill:black;font-family:sans-serif;font-size:13;text-anchor:end;" transform="matrix(1 0 0 1 3036 1987)">Typeset at 100 points</text>
  <text style="stroke:none;fill:black;font-family:sans-serif;font-size:13;" transform="matrix(1 0 0 1 263 726)">Small</text>
  <text style="stroke:none;fill:black;font-family:sans-serif;font-size:13;" transform="matrix(1 0 0 1 263 1156)">Medium</text>
  <text style="stroke:none;fill:black;font-family:sans-serif;font-size:13;" transform="matrix(1 0 0 1 263 1586)">Large</text>
 </g>
 <g id="Guides">
  <g id="H-reference" style="fill:#27AAE1;stroke:none;" transform="matrix(1 0 0 1 339 696)">
   <path d="M0.993654 0L3.63775 0L29.3281-67.1323L30.0303-67.1323L30.0303-70.459L28.1226-70.459ZM11.6885-24.4799L46.9815-24.4799L46.2315-26.7285L12.4385-26.7285ZM55.1196 0L57.7637 0L30.6382-70.459L29.4326-70.459L29.4326-67.1323Z"/>
  </g>
  <line id="Baseline-S" style="fill:none;stroke:#27AAE1;opacity:1;stroke-width:0.5;" x1="263" x2="3036" y1="696" y2="696"/>
  <line id="Capline-S" style="fill:none;stroke:#27AAE1;opacity:1;stroke-width:0.5;" x1="263" x2="3036" y1="625.541" y2="625.541"/>
  <g id="H-reference" style="fill:#27AAE1;stroke:none;" transform="matrix(1 0 0 1 339 1126)">
   <path d="M0.993654 0L3.63775 0L29.3281-67.1323L30.0303-67.1323L30.0303-70.459L28.1226-70.459ZM11.6885-24.4799L46.9815-24.4799L46.2315-26.7285L12.4385-26.7285ZM55.1196 0L57.7637 0L30.6382-70.459L29.4326-70.459L29.4326-67.1323Z"/>
  </g>
  <line id="Baseline-M" style="fill:none;stroke:#27AAE1;opacity:1;stroke-width:0.5;" x1="263" x2="3036" y1="1126" y2="1126"/>
  <line id="Capline-M" style="fill:none;stroke:#27AAE1;opacity:1;stroke-width:0.5;" x1="263" x2="3036" y1="1055.54" y2="1055.54"/>
  <g id="H-reference" style="fill:#27AAE1;stroke:none;" transform="matrix(1 0 0 1 339 1556)">
   <path d="M0.993654 0L3.63775 0L29.3281-67.1323L30.0303-67.1323L30.0303-70.459L28.1226-70.459ZM11.6885-24.4799L46.9815-24.4799L46.2315-26.7285L12.4385-26.7285ZM55.1196 0L57.7637 0L30.6382-70.459L29.4326-70.459L29.4326-67.1323Z"/>
  </g>
  <line id="Baseline-L" style="fill:none;stroke:#27AAE1;opacity:1;stroke-width:0.5;" x1="263" x2="3036" y1="1556" y2="1556"/>
  <line id="Capline-L" style="fill:none;stroke:#27AAE1;opacity:1;stroke-width:0.5;" x1="263" x2="3036" y1="1485.54" y2="1485.54"/>
  <line id="left-margin-Ultralight-S" style="fill:none;stroke:#00AEEF;stroke-width:0.5;opacity:1.0;" x1="511.241" x2="511.241" y1="600.785" y2="720.121"/>
  <line id="right-margin-Ultralight-S" style="fill:none;stroke:#00AEEF;stroke-width:0.5;opacity:1.0;" x1="608.182" x2="608.182" y1="600.785" y2="720.121"/>
  <line id="left-margin-Regular-S" style="fill:none;stroke:#00AEEF;stroke-width:0.5;opacity:1.0;" x1="1394.45" x2="1394.45" y1="600.785" y2="720.121"/>
  <line id="right-margin-Regular-S" style="fill:none;stroke:#00AEEF;stroke-width:0.5;opacity:1.0;" x1="1505.24" x2="1505.24" y1="600.785" y2="720.121"/>
  <line id="left-margin-Black-S" style="fill:none;stroke:#00AEEF;stroke-width:0.5;opacity:1.0;" x1="2873.17" x2="2873.17" y1="600.785" y2="720.121"/>
  <line id="right-margin-Black-S" style="fill:none;stroke:#00AEEF;stroke-width:0.5;opacity:1.0;" x1="2993.63" x2="2993.63" y1="600.785" y2="720.121"/>
 </g>
 <g id="Symbols">
  <g id="Black-S" transform="matrix(1 0 0 1 2873.17 696)">
   <path class="monochrome-0 multicolor-0:tintColor hierarchical-0:primary SFSymbolsPreview007AFF" d="M50.293-35.3516L66.5039-79.834C58.7402-81.4941 51.5137-80.0781 45.8984-75.6836L45.166-75.8789C38.9648-77.5391 33.6914-74.5605 31.1523-67.5293L13.3301-18.457C11.4746-13.3789 13.2812-8.20312 19.5312-6.00586C24.7559-4.15039 29.8828-6.68945 31.7383-11.7188L45.8008-50.0488L39.5508-47.1191C41.6504-41.5527 45.4102-37.8906 50.293-35.3516ZM68.8965-78.3691L53.125-35.0586C52.1973-32.5684 53.5156-29.834 56.0059-28.9062C58.5449-27.9785 61.2793-29.2969 62.1582-31.7383L77.9297-75.0977C78.8086-77.5391 77.5879-80.3223 75.0488-81.25C72.5586-82.1289 69.7754-80.8105 68.8965-78.3691ZM25.3906-10.498L17.8711-13.2812L9.76562 9.13086L17.2852 11.9141Z"/>
   <path class="monochrome-1 multicolor-1:tintColor hierarchical-1:secondary SFSymbolsPreview007AFF" d="M82.7637-48.9258C83.5938-51.2695 82.373-53.9062 79.9805-54.7852C77.6367-55.6152 75.0488-54.3945 74.1699-52.0508C73.291-49.707 74.5117-47.0703 76.8555-46.1914C79.248-45.3613 81.8848-46.582 82.7637-48.9258ZM76.2695-33.1055C78.2227-34.7656 78.5156-37.6465 76.8555-39.5996C75.2441-41.5039 72.3633-41.7969 70.4102-40.1367C68.5059-38.5254 68.2617-35.6445 69.8242-33.7402C71.4844-31.7871 74.3652-31.543 76.2695-33.1055ZM87.9395-65.1367C87.5-67.5781 85.1074-69.2383 82.6172-68.7988C80.1758-68.4082 78.5156-65.9668 78.9062-63.5254C79.3457-61.0352 81.7871-59.375 84.2285-59.8145C86.7188-60.2539 88.3789-62.6465 87.9395-65.1367Z"/>
   <path class="monochrome-2 multicolor-2:tintColor hierarchical-2:secondary SFSymbolsPreview007AFF" d="M99.2676-67.1387C98.8281-69.6777 96.4355-71.2891 93.9453-70.8496C91.5039-70.459 89.8438-68.0176 90.2832-65.5273C90.7227-63.0859 93.0664-61.4746 95.5566-61.8652C98.0469-62.3047 99.707-64.6973 99.2676-67.1387ZM83.6426-24.3164C85.5957-25.8789 85.8887-28.8086 84.2285-30.7617C82.5684-32.666 79.7363-32.9102 77.832-31.2988C75.8789-29.6875 75.6348-26.7578 77.1973-24.9023C78.8574-22.9492 81.7383-22.6562 83.6426-24.3164ZM93.5547-44.9707C94.4336-47.3145 93.2129-49.9512 90.8203-50.7812C88.4766-51.6602 85.8398-50.4395 85.0098-48.0957C84.1309-45.7031 85.3516-43.0664 87.6953-42.2363C90.0879-41.3574 92.7246-42.5781 93.5547-44.9707Z"/>
   <path class="monochrome-3 multicolor-3:tintColor hierarchical-3:secondary SFSymbolsPreview007AFF" d="M104.395-41.0156C105.273-43.3594 104.004-45.9961 101.66-46.875C99.3164-47.7051 96.6797-46.4844 95.8008-44.1406C94.9707-41.748 96.1914-39.1113 98.5352-38.2812C100.879-37.4023 103.516-38.623 104.395-41.0156ZM91.1133-15.4785C92.9688-17.0898 93.2617-19.9707 91.6504-21.9238C90.0391-23.8281 87.1094-24.0723 85.2539-22.4609C83.3008-20.8496 83.0078-17.9199 84.6191-16.0645C86.2305-14.1113 89.1602-13.8184 91.1133-15.4785ZM110.645-69.1406C110.205-71.6309 107.764-73.291 105.273-72.8516C102.832-72.4609 101.172-70.0195 101.611-67.5293C102.051-65.0879 104.443-63.4277 106.885-63.8672C109.375-64.3066 111.035-66.6992 110.645-69.1406Z"/>
  </g>
  <g id="Regular-S" transform="matrix(1 0 0 1 1394.45 696)">
   <path class="monochrome-0 multicolor-0:tintColor hierarchical-0:primary SFSymbolsPreview007AFF" d="M49.4141-36.0352L63.8184-75.8301C56.25-77.7832 49.2188-76.416 43.8477-71.875L43.3105-72.0703C38.3301-73.877 33.5938-71.1426 31.4453-65.1855L14.4043-18.3105C13.0859-14.7461 14.5996-11.6211 18.1152-10.2539C21.7285-9.0332 24.9512-10.4492 26.2207-13.916L39.4531-50.4395L37.4023-49.1699C39.1602-43.6035 43.3105-38.9648 49.4141-36.0352ZM66.6016-75.5859L51.709-34.5703C51.123-32.959 51.9531-31.2012 53.5156-30.6641C55.127-30.0293 56.8848-30.9082 57.4219-32.4219L72.4121-73.4863C72.9492-75.0977 72.168-76.8066 70.5566-77.4414C68.9453-77.9785 67.1875-77.1484 66.6016-75.5859ZM20.9473-11.0352L16.5039-12.6465L9.76562 5.85938L14.209 7.4707Z"/>
   <path class="monochrome-1 multicolor-1:tintColor hierarchical-1:secondary SFSymbolsPreview007AFF" d="M75.3418-49.6094C75.8789-51.123 75.0488-52.8809 73.4863-53.418C71.9238-53.9551 70.2148-53.2715 69.6289-51.6602C69.043-50.0488 69.8242-48.2422 71.3867-47.6562C72.998-47.0703 74.707-47.9492 75.3418-49.6094ZM69.7266-35.2539C71.0449-36.4746 71.0938-38.2812 69.9707-39.5508C68.7988-40.8691 66.8945-41.0156 65.6738-39.7461C64.4531-38.4766 64.4043-36.6699 65.5762-35.4492C66.6992-34.3262 68.5547-34.1309 69.7266-35.2539ZM80.2246-63.916C79.9316-65.5762 78.5156-66.6016 76.8066-66.3574C75.1465-66.1133 73.9258-64.8438 74.1699-63.1348C74.3652-61.5234 75.8789-60.4004 77.5879-60.5469C79.248-60.791 80.4199-62.2559 80.2246-63.916Z"/>
   <path class="monochrome-2 multicolor-2:tintColor hierarchical-2:secondary SFSymbolsPreview007AFF" d="M90.625-65.1855C90.4785-66.8457 88.8672-68.0176 87.2559-67.8223C85.6445-67.5293 84.375-66.0645 84.6191-64.3555C84.8145-62.8906 86.377-61.6699 88.0371-61.8164C89.6484-62.0605 90.8691-63.5742 90.625-65.1855ZM76.9531-27.5879C78.1738-28.7598 78.2227-30.7129 77.0508-31.9824C75.9766-33.1055 74.0723-33.1543 72.8516-31.9824C71.6797-30.9082 71.582-28.9551 72.6562-27.8809C73.9258-26.6113 75.7324-26.4648 76.9531-27.5879ZM85.1074-45.8984C85.6934-47.4609 84.9121-49.1699 83.3008-49.7559C81.7383-50.3418 80.127-49.6094 79.5898-47.9492C79.0039-46.4355 79.7363-44.7754 81.2988-44.1895C82.8613-43.6035 84.5703-44.3848 85.1074-45.8984Z"/>
   <path class="monochrome-3 multicolor-3:tintColor hierarchical-3:secondary SFSymbolsPreview007AFF" d="M95.0195-42.3828C95.6055-43.9941 94.7754-45.6543 93.2129-46.2402C91.6504-46.7773 89.8926-46.0449 89.3555-44.4824C88.7695-42.9199 89.5508-41.0645 91.1133-40.4785C92.6758-39.8926 94.4336-40.8203 95.0195-42.3828ZM84.0332-19.9707C85.2051-21.1426 85.3516-22.8516 84.2285-24.2188C83.1055-25.4395 81.2012-25.4395 79.9805-24.2188C78.8574-23.1445 78.6621-21.2891 79.7852-20.0684C80.9082-18.7988 82.9102-18.8477 84.0332-19.9707ZM100.977-66.4551C100.732-68.1152 99.3164-69.2871 97.7051-69.0918C95.9961-68.9453 94.873-67.334 95.1172-65.7715C95.3125-64.1113 96.7285-62.9883 98.3887-63.1836C100.049-63.3301 101.221-64.8926 100.977-66.4551Z"/>
  </g>
  <g id="Ultralight-S" transform="matrix(1 0 0 1 511.241 696)">
   <path class="monochrome-0 multicolor-0:tintColor hierarchical-0:primary SFSymbolsPreview007AFF" d="M43.3746-34.7183L56.4166-70.9258C49.8018-72.4248 42.9522-70.3311 38.2623-65.6539L37.044-66.1216C33.1534-67.6104 30.0064-66.0567 28.5391-61.916L13.2236-19.9907C12.2686-17.2436 13.4644-14.5727 16.2534-13.5688C19.0947-12.5752 21.7271-13.8095 22.7241-16.5044L34.0039-47.624L33.3609-47.2173C34.7554-41.9234 38.2701-37.3755 43.3746-34.7183ZM58.4732-70.8633L44.9429-33.5713C44.7203-33.0044 45.0054-32.3818 45.5689-32.1626C46.1358-31.9365 46.713-32.2705 46.9322-32.7852L60.5147-70.0806C60.734-70.6929 60.4068-71.2666 59.8853-71.4927C59.3184-71.712 58.6959-71.3814 58.4732-70.8633ZM17.4961-13.9414L15.5957-14.6445L9.76562 1.27299L11.7569 1.97612Z"/>
   <path class="monochrome-1 multicolor-1:tintColor hierarchical-1:secondary SFSymbolsPreview007AFF" d="M62.4-48.8828C62.8009-49.8516 62.2433-51.0191 61.1803-51.4199C60.1627-51.7754 58.9986-51.2735 58.6397-50.207C58.2354-49.186 58.7896-48.0151 59.8072-47.6562C60.8736-47.252 62.0377-47.813 62.4-48.8828ZM57.4659-36.2075C58.3302-36.9287 58.4698-38.1904 57.7101-39.0513C56.9923-39.9155 55.7691-40.0166 54.9117-39.292C54.0543-38.522 53.96-37.3057 54.6778-36.4482C55.4376-35.6431 56.6573-35.5386 57.4659-36.2075ZM66.7833-61.6455C66.5812-62.7608 65.5738-63.4229 64.4098-63.315C63.2945-63.1162 62.6642-62.1192 62.8175-60.9551C63.0128-59.8433 63.9815-59.1743 65.1002-59.3208C66.2608-59.5195 66.9332-60.5303 66.7833-61.6455Z"/>
   <path class="monochrome-2 multicolor-2:tintColor hierarchical-2:secondary SFSymbolsPreview007AFF" d="M76.9112-63.4146C76.7193-64.5752 75.7438-65.2476 74.6319-65.0977C73.5655-64.8955 72.8409-63.8394 72.9942-62.7207C73.1895-61.6192 74.2525-60.9434 75.3224-61.1353C76.4342-61.334 77.11-62.3027 76.9112-63.4146ZM64.1476-28.3144C65.005-29.0322 65.1446-30.3042 64.3814-31.165C63.6705-31.9248 62.4474-32.0645 61.6353-31.3921C60.7813-30.6357 60.6383-29.3638 61.3492-28.5166C62.0284-27.7466 63.2901-27.6001 64.1476-28.3144ZM72.1202-45.3081C72.5245-46.3257 71.9703-47.4898 70.9039-47.8486C69.8863-48.2529 68.7745-47.7022 68.3736-46.6323C68.0147-45.6636 68.5201-44.5029 69.5377-44.0986C70.6007-43.7397 71.7647-44.2485 72.1202-45.3081Z"/>
   <path class="monochrome-3 multicolor-3:tintColor hierarchical-3:secondary SFSymbolsPreview007AFF" d="M81.8961-41.7925C82.255-42.7681 81.6974-43.9287 80.6798-44.333C79.6168-44.6885 78.4947-44.1831 78.0938-43.1201C77.735-42.1025 78.2892-40.9282 79.2613-40.5693C80.3243-40.165 81.4918-40.7295 81.8961-41.7925ZM70.8644-20.3794C71.7184-21.1426 71.8194-22.3521 71.1051-23.2197C70.3453-24.0317 69.0768-24.168 68.2647-23.4922C67.4142-22.7358 67.3551-21.4707 68.024-20.6133C68.7384-19.7524 70.0138-19.6196 70.8644-20.3794ZM87.1266-65.1836C86.9278-66.2988 85.9659-67.0166 84.8541-66.8213C83.7809-66.6294 83.0211-65.6084 83.1744-64.5C83.3697-63.4302 84.4225-62.7158 85.5377-62.9111C86.6529-63.103 87.3253-64.1206 87.1266-65.1836Z"/>
  </g>
 </g>
</svg>
